<svg viewBox="0 0 24 24" xmlns="http://www.w3.org/2000/svg"><path d="m14.064 12.537c-.725 0-1.313.545-1.313 1.217v5.353c0 .672.589 1.217 1.314 1.217.726 0 1.314-.545 1.314-1.218v-5.352c0-.672-.589-1.217-1.315-1.217zm4.132-4.888c-.726 0-1.314.545-1.314 1.218v10.203c0 .672.59 1.217 1.314 1.217.726 0 1.314-.545 1.314-1.217v-10.203c0-.673-.588-1.218-1.314-1.218zm-8.262 3.035c-.725 0-1.313.545-1.313 1.218v7.205c0 .672.589 1.217 1.315 1.217.725 0 1.313-.545 1.313-1.218v-7.205c0-.672-.589-1.217-1.315-1.217zm-4.13 4.398h-.001c-.726 0-1.314.546-1.314 1.218l.001 2.807c0 .672.588 1.217 1.314 1.217s1.314-.545 1.313-1.218v-2.806c0-.673-.588-1.218-1.314-1.218zm18.196-8.782v9.163c0 1.447-1.27 2.624-2.831 2.624h-.484v-.897h.484c1.027 0 1.863-.775 1.863-1.727v-9.163c0-.952-.836-1.726-1.863-1.726h-18.338c-1.027 0-1.863.774-1.863 1.726v9.163c0 .952.836 1.727 1.863 1.727h.484v.897h-.485c-1.56-.001-2.83-1.178-2.83-2.625v-9.162c0-1.446 1.27-2.623 2.83-2.623h18.34c1.56-.001 2.83 1.176 2.83 2.623z"/></svg>