<?xml version="1.0" standalone="no"?>
<!DOCTYPE svg PUBLIC "-//W3C//DTD SVG 20010904//EN"
 "http://www.w3.org/TR/2001/REC-SVG-20010904/DTD/svg10.dtd">
<svg version="1.0" xmlns="http://www.w3.org/2000/svg"
 width="705.000000pt" height="671.000000pt" viewBox="0 0 705.000000 671.000000"
 preserveAspectRatio="xMidYMid meet">

<g transform="translate(0.000000,671.000000) scale(0.100000,-0.100000)"
fill="#000000" stroke="none">
<path d="M3040 6670 c-587 -41 -1173 -249 -1640 -583 -701 -501 -1169 -1244
-1310 -2077 -99 -587 -35 -1192 182 -1730 372 -922 1146 -1621 2098 -1895 300
-86 538 -118 880 -119 258 0 354 7 570 45 450 78 918 272 1279 531 46 33 89
61 95 63 6 2 252 -198 546 -446 294 -247 538 -448 542 -447 11 4 628 736 627
745 0 4 -204 182 -452 396 -249 213 -476 409 -506 435 l-54 48 65 105 c173
275 281 512 371 809 175 579 179 1216 12 1800 -97 338 -269 695 -469 975 -532
745 -1346 1225 -2251 1330 -162 18 -432 25 -585 15z m494 -1246 c790 -108
1444 -695 1641 -1473 226 -895 -206 -1836 -1032 -2250 -279 -139 -562 -205
-883 -205 -202 -1 -314 13 -495 59 -199 51 -376 126 -546 231 -504 312 -842
829 -923 1413 -18 128 -21 377 -6 501 46 366 186 702 415 995 72 92 252 270
340 337 435 329 952 465 1489 392z"/>
<path d="M3065 4715 c-289 -46 -516 -165 -721 -377 -171 -177 -283 -392 -330
-635 -24 -118 -24 -347 -1 -465 49 -248 164 -469 334 -645 243 -250 558 -383
908 -383 211 0 387 41 572 135 408 205 665 601 689 1060 35 654 -436 1221
-1091 1315 -94 13 -262 11 -360 -5z"/>
</g>
</svg>
